# xmcd CD database file
#
# Track frame offsets:
#	150
#	20949
#	50768
#	85117
#	98475
#	127968
#	156556
#
# Disc length: 2281 seconds
#
# Revision: 0
# Processed by: cddbd v1.5.2PL0 Copyright (c) Steve Scherf et al.
# Submitted via: CDex 1.51
#
DISCID=5708e707
DTITLE=Paco Charlín - Jazz frequency group
DYEAR=1900
DGENRE=Jazz
TTITLE0=Aregin
TTITLE1=I could write a book
TTITLE2=Afroblue
TTITLE3=Diverse
TTITLE4=Countdonw
TTITLE5=We´ll be together again
TTITLE6=Au private
EXTD=
EXTT0=
EXTT1=
EXTT2=
EXTT3=
EXTT4=
EXTT5=
EXTT6=
PLAYORDER=
